<svg height="209pt" preserveAspectRatio="xMidYMid meet" viewBox="0 0 495 209" width="495pt" xmlns="http://www.w3.org/2000/svg"><g transform="matrix(.1 0 0 -.1 0 209)"><path d="m1066 2014c-93-23-190-79-254-149l-57-62-34 14c-135 56-286 26-390-79-53-52-98-142-107-215-6-49-10-55-43-72-46-24-82-63-112-121-18-35-24-61-24-120 0-65 4-82 30-129 33-60 82-100 152-127l45-17-4-78-3-78-56-58c-69-71-79-89-79-147 0-33-6-52-20-66-57-57 15-150 79-103 34 26 40 72 11 98-16 14-20 30-20 77 0 59 0 59 65 128l65 69v81 80h45 45v-136c0-121-2-139-20-161-25-33-25-68 0-93 24-24 57-26 88-4 29 20 30 74 2 99-18 16-20 31-20 157v139l71-3 71-3 22-60c42-116 119-201 230-255l59-28-111-116-112-115v-72c0-61-3-75-25-101-27-32-30-49-14-79 16-31 55-42 88-24 45 23 48 80 7 114-11 10-16 31-16 73v60l104 107c57 60 107 118 111 130 4 15 12 20 22 17 8-3 39-6 69-6h54v-158c0-146-2-160-20-177-44-40-14-115 47-115 55 0 83 78 43 115-19 17-20 29-18 183l3 165 42 12 41 12 6-30c4-19 35-59 86-111l80-82v-116c0-103-2-117-20-133-29-26-23-72 12-98 23-17 30-18 57-7 47 19 59 79 21 111-15 13-19 34-22 137l-3 122-76 77c-117 119-121 135-49 188 62 45 123 129 151 207l22 58h47 48l11-46c8-33 28-63 71-109l60-64v-68c0-71-6-88-53-147-17-21-31-53-34-78-4-25-14-48-25-56-24-17-24-74 0-95 63-57 152 33 92 93-29 29-26 81 6 111 44 41 54 71 54 169v91l-65 69c-49 52-65 76-65 98 0 29 0 29 73 34 223 14 384 240 323 452-43 146-157 245-307 266-34 5-62 10-63 12s-10 24-20 51c-52 140-196 259-355 293-81 17-139 17-215-2zm256-104c29-11 75-37 102-57 55-42 123-135 132-179 5-27 1-31-51-58-63-33-145-117-145-150 0-25 17-46 39-46 8 0 40 26 71 59 65 66 121 91 206 91 143 0 255-102 270-246 11-107-48-213-149-266-36-19-62-23-173-26l-131-4-6 61c-12 138-118 281-257 349-73 36-78 37-190 37s-117-1-190-37c-139-68-245-211-257-348l-6-60h-156c-172 0-217 12-259 64-93 120-10 295 141 296 57 0 99-22 147-79 29-34 51-51 66-51 34 0 45 28 28 70-31 72-113 134-197 149-41 7-42 8-39 41 4 50 48 135 85 166 82 69 197 86 295 44 52-22 113-80 134-125 14-31 45-38 68-15 25 25 13 61-36 119l-35 41 50 53c118 125 288 166 443 107zm-129-554c73-35 138-101 174-174 25-51 28-68 28-157 0-95-2-103-34-163-39-71-98-128-169-163-40-20-62-24-152-24s-112 4-152 24c-71 35-131 92-168 163-28 51-34 76-38 140-6 96 9 152 60 228 42 64 119 123 189 146 71 23 194 14 262-20zm-746-752c7-20-17-37-34-23-15 13-6 39 13 39 8 0 17-7 21-16zm-277-144c0-21-24-28-35-10-8 14 3 30 21 30 8 0 14-9 14-20zm1500-141c0-23-28-26-37-3-6 16 15 37 29 28 4-3 8-14 8-25zm-542-132c2-12-3-17-17-17-15 0-21 6-21 21 0 25 33 22 38-4zm-410-44c-5-26-38-29-38-4 0 15 6 21 21 21 14 0 19-5 17-17zm729-39c7-20-17-37-34-23-15 13-6 39 13 39 8 0 17-7 21-16z"/><path d="m1008 1280c-9-15-24-20-53-20-62 0-85-10-92-38-4-19-1-30 15-43 21-16 22-26 22-151 0-122-2-134-20-146-22-14-27-51-8-70 7-7 38-12 69-12 48 0 57-3 62-20 4-15 14-20 37-20s33 5 37 20c4 16 14 20 45 20 71 0 131 48 144 116 7 37-26 118-51 128-12 4-13 11-5 31 28 74-13 154-88 175-21 5-43 19-50 30-16 26-48 26-64 0zm100-126c12-8 22-24 22-34 0-34-28-50-86-50h-54v43c0 24 3 47 7 50 12 13 89 7 111-9zm62-193c10-21 4-51-14-63-6-4-46-8-88-8h-78v45 45h85c73 0 86-3 95-19z"/><path d="m2940 1520c0-28 3-30 35-30s35 2 35 30-3 30-35 30-35-2-35-30z"/><path d="m2273 1516c-17-8-36-23-42-35-7-11-11-83-11-175v-156h35 34l3 153 3 152 95 3c112 3 129-5 137-65 4-33 1-45-16-62-18-18-33-21-112-21h-90l3-32 3-33 75-3c101-4 134 3 169 39 57 57 48 182-17 225-36 25-222 31-269 10z"/><path d="m2673 1406c-27-24-28-27-31-140l-4-116h36 35l3 103 3 102 90 5 90 5 3 33 3 32h-100c-91 0-102-2-128-24z"/><path d="m2940 1290v-140h35 35v140 140h-35-35z"/><path d="m3070 1301c0-150 4-157 75-148 62 9 114 37 162 90 39 43 82 115 97 165 7 20 4 22-28 22s-37-4-56-47c-37-84-119-163-169-163-7 0-11 35-11 105v105h-35-35z"/><path d="m3463 1406c-25-21-28-32-31-98-5-86 13-133 54-148 14-6 61-10 105-10 134 0 165 32 157 161-3 63-7 74-31 95-26 22-37 24-127 24s-101-2-127-24zm212-116v-65h-85-85l-3 54c-5 82-4 82 90 79l83-3z"/><path d="m3833 1406c-27-24-28-27-31-140l-4-116h36 35l3 103 3 102 90 5 90 5 3 33 3 32h-100c-91 0-102-2-128-24z"/><path d="m4092 1332c4-112 18-145 73-168 43-18 216-19 233-2 8 8 12 54 12 140v128h-35-35v-105-105h-74c-95 0-100 6-104 122l-4 88h-35-35z"/><path d="m4482 1418c-8-8-12-55-12-140v-128h35 35v105 106l58-3 57-3 3-102 3-103h34 35v105 105h40 40v-105-105h35 35v115c0 112-1 117-26 140s-31 24-193 24c-115 0-171-3-179-11z"/><path d="m1864 877c-3-8-4-47-2-88 2-58 6-74 18-74s16 18 18 88c2 74 0 87-13 87-9 0-18-6-21-13z"/><path d="m3188 870c-16-10-18-30-18-178 0-117 4-172 12-180 19-19 307-16 335 3 41 29 42 121 2 164-18 19-19 26-10 53 17 49 13 85-13 115-24 28-25 28-158 31-81 1-140-2-150-8zm260-87c2-12-6-31-17-42-17-17-34-21-91-21h-70v-35-35h95c83 0 96-2 105-19 5-11 10-29 10-40 0-20-5-21-120-21h-120v120 121l103-3c96-3 102-4 105-25z"/><path d="m3560 875c0-13 184-371 194-377 24-15 50 24 136 200l89 182h-37-37l-68-136-68-137-66 137-67 136h-38c-21 0-38-2-38-5z"/><path d="m1500 622c0-71 3-131 6-135 3-3 12-3 20 0 11 4 14 33 14 134 0 122-1 129-20 129s-20-7-20-128z"/><path d="m592 528c3-110 6-133 18-133 13 0 15 21 15 130 0 116-2 130-18 133s-17-6-15-130z"/><path d="m1867 614c-4-4-7-25-7-46 0-32 3-38 21-38s20 5 17 42c-3 39-16 57-31 42z"/><path d="m411 426c-19-23-10-71 14-71 22 0 30 24 21 61-7 27-18 30-35 10z"/><path d="m1231 426c-7-9-11-42-9-88 3-65 5-73 23-73s20 8 23 76c2 56-1 79-11 88-11 9-17 8-26-3z"/><path d="m906 375c-9-25-7-228 3-244 5-8 16-11 25-8 14 6 16 24 14 134-3 109-5 128-19 131-9 2-19-4-23-13z"/><path d="m270 255c0-78 2-85 20-85s20 7 20 85-2 85-20 85-20-7-20-85z"/></g></svg>