<?xml version="1.0" encoding="UTF-8" standalone="no"?>
<!-- Generator: Adobe Illustrator 25.3.1, SVG Export Plug-In . SVG Version: 6.00 Build 0)  -->

<svg
   version="1.1"
   x="0px"
   y="0px"
   viewBox="0 0 465.335 103.7"
   xml:space="preserve"
   id="svg18"
   width="465.33499"
   height="103.7"
   xmlns="http://www.w3.org/2000/svg"
   xmlns:svg="http://www.w3.org/2000/svg"><defs
   id="defs18" />
<style
   type="text/css"
   id="style1">
	.st0{display:none;}
	.st1{display:inline;fill-rule:evenodd;clip-rule:evenodd;fill:#D7BB40;}
	.st2{display:inline;}
	.st3{fill:#94BE1C;}
	.st4{fill:#E7DF09;}
	.st5{fill:#FFB612;}
	.st6{fill:#4CAC2C;}
	.st7{fill:#ED8C00;}
	.st8{fill:#DD3E26;}
	.st9{fill:#CA052D;}
	.st10{fill:#131d3a;}
</style>
<g
   id="Laag_1"
   class="st0"
   transform="translate(-0.60061,-0.61411)">
	<rect
   x="-308.70001"
   y="29.9"
   class="st1"
   width="906"
   height="390"
   id="rect1" />
	<g
   id="Layer_1"
   class="st2">
		<g
   id="Achtergrond">
		</g>
	</g>
</g>
<g
   id="Laag_2"
   transform="translate(-23.3,-22.7)">
	<g
   id="Laag_2_1_">
		<g
   id="Layer_1_2_">
			<g
   id="logo_symbol_border">
        			<path
   fill-rule="evenodd"
   clip-rule="evenodd"
   fill="#f7d346"
   d="m 107.5,72.5 c -6.6,21.4 -28,39.2 -42.1,42.1 -22.8,4.6 -42.1,-18.9 -42.1,-42.1 0,-23.2 19.5,-36.7 42.1,-42.1 46.2,-11.2 49,19.9 42.1,42.1 z"
   id="path1" />
        			<path
   fill-rule="evenodd"
   clip-rule="evenodd"
   fill="#131d3a"
   d="M 40,116.1 65.7,75.9 55.1,58.4 30.9,109 c -1.3,3.4 0.3,7.2 3.7,8.6 1.1,0.3 2.2,0.3 3.2,-0.1 0.9,-0.2 1.7,-0.7 2.2,-1.4 z"
   id="path2" />
        			<path
   fill-rule="evenodd"
   clip-rule="evenodd"
   fill="#131d3a"
   d="m 34.5,22.8 c -0.6,0 -1,0.4 -1.1,1 0,0.1 0,0.2 0,0.3 1.1,5.3 5.3,25.7 4,31.4 -1.3,6.1 -7.8,18.4 -7.8,18.4 C 30.5,78 40,78 43.5,72.6 l 10.9,-19.2 37.8,59.8 c 3.5,5.5 13,5.5 13.8,1.3 l -40.3,-89 c -0.8,-1.7 -2.4,-2.8 -4.3,-2.8 z"
   id="path3" />
    			</g>
			<g
   id="g18">
				<g
   transform="translate(0,58)"
   id="g17">
					<path
   class="st10"
   d="m 124,46 v 0 c 0,-8.6 5.7,-13.4 11.7,-13.4 4.2,0 6.8,2.1 8.6,4.5 V 23.3 h 5.8 v 35.6 h -5.8 v -4.3 c -1.9,2.7 -4.5,4.8 -8.6,4.8 C 129.8,59.4 124,54.5 124,46 Z m 20.4,0 v 0 c 0,-5.1 -3.4,-8.3 -7.3,-8.3 -4,0 -7.3,3.1 -7.3,8.2 V 46 c 0,5 3.3,8.2 7.3,8.2 3.8,0 7.3,-3.3 7.3,-8.2 z"
   id="path4" />
					<path
   class="st10"
   d="m 154.9,46.1 v 0 c 0,-7.5 5.1,-13.5 12.3,-13.5 8,0 12.1,6.4 12.1,13.8 0,0.5 0,1.1 -0.1,1.7 h -18.5 c 0.6,4.2 3.5,6.5 7.3,6.5 2.8,0 4.8,-1.1 6.8,-3.1 l 3.4,3.1 c -2.4,2.9 -5.7,4.8 -10.3,4.8 -7.5,0 -13,-5.4 -13,-13.3 z m 18.7,-1.9 c -0.4,-3.8 -2.6,-6.8 -6.4,-6.8 -3.5,0 -6,2.8 -6.5,6.8 z"
   id="path5" />
					<path
   class="st10"
   d="m 210.4,46.1 v 0 c 0,-7.5 5.1,-13.5 12.3,-13.5 8,0 12.1,6.4 12.1,13.8 0,0.5 0,1.1 -0.1,1.7 h -18.5 c 0.6,4.2 3.5,6.5 7.3,6.5 2.8,0 4.8,-1.1 6.8,-3.1 l 3.4,3.1 c -2.4,2.9 -5.7,4.8 -10.3,4.8 -7.3,0 -13,-5.4 -13,-13.3 z m 18.7,-1.9 c -0.4,-3.8 -2.6,-6.8 -6.4,-6.8 -3.5,0 -6,2.8 -6.5,6.8 z"
   id="path6" />
					<path
   class="st10"
   d="m 240.1,23.3 h 5.8 v 35.6 h -5.8 z"
   id="path7" />
					<path
   class="st10"
   d="m 250.9,46.1 v 0 c 0,-7.5 5.1,-13.5 12.3,-13.5 8,0 12.1,6.4 12.1,13.8 0,0.5 0,1.1 -0.1,1.7 h -18.5 c 0.6,4.2 3.5,6.5 7.3,6.5 2.8,0 4.8,-1.1 6.8,-3.1 l 3.4,3.1 c -2.4,2.9 -5.7,4.8 -10.3,4.8 -7.3,0 -13,-5.4 -13,-13.3 z m 18.7,-1.9 c -0.4,-3.8 -2.6,-6.8 -6.4,-6.8 -3.5,0 -6,2.8 -6.5,6.8 z"
   id="path8" />
					<path
   class="st10"
   d="m 281.8,38.2 h -3.2 v -5 h 3.2 v -1.8 c 0,-2.9 0.7,-5 2.1,-6.4 1.3,-1.4 3.2,-2 5.7,-2 2,0 3.4,0.3 4.7,0.7 v 5 c -1.1,-0.4 -2.1,-0.6 -3.4,-0.6 -2.2,0 -3.3,1.2 -3.3,3.9 v 1.4 h 6.7 v 4.8 h -6.6 v 20.6 h -5.8 z"
   id="path9" />
					<path
   class="st10"
   d="m 295.5,46.1 v 0 c 0,-7.5 5.7,-13.5 13.5,-13.5 7.8,0 13.4,6 13.4,13.3 V 46 c 0,7.3 -5.7,13.4 -13.5,13.4 -7.8,0 -13.4,-6 -13.4,-13.3 z m 21.1,0 v 0 c 0,-4.6 -3.2,-8.4 -7.7,-8.4 -4.6,0 -7.6,3.7 -7.6,8.2 V 46 c 0,4.5 3.2,8.3 7.7,8.3 4.6,0 7.6,-3.8 7.6,-8.2 z"
   id="path10" />
					<path
   class="st10"
   d="m 326.1,46.1 v 0 c 0,-7.5 5.7,-13.5 13.5,-13.5 7.7,0 13.4,6 13.4,13.3 V 46 c 0,7.3 -5.7,13.4 -13.5,13.4 -7.7,0 -13.4,-6 -13.4,-13.3 z m 21.1,0 v 0 c 0,-4.6 -3.2,-8.4 -7.7,-8.4 -4.6,0 -7.6,3.7 -7.6,8.2 V 46 c 0,4.5 3.2,8.3 7.7,8.3 4.7,0 7.6,-3.8 7.6,-8.2 z"
   id="path11" />
					<path
   class="st10"
   d="m 357.9,33.1 h 5.8 v 4 c 1.6,-2.4 4,-4.5 7.9,-4.5 5.7,0 9,3.9 9,9.9 v 16.4 h -5.8 V 44.2 c 0,-4 -2,-6.3 -5.4,-6.3 -3.3,0 -5.7,2.4 -5.7,6.4 v 14.5 h -5.8 z"
   id="path12" />
					<path
   class="st10"
   d="m 417.8,23.6 h 6.2 v 5.6 h -6.2 z m 0.1,9.5 h 5.8 v 25.7 h -5.8 z"
   id="path13" />
					<path
   class="st10"
   d="m 429,46 v 0 c 0,-8.6 5.7,-13.4 11.7,-13.4 4.2,0 6.8,2.1 8.6,4.5 V 23.3 h 5.8 v 35.6 h -5.8 v -4.3 c -1.9,2.7 -4.5,4.8 -8.6,4.8 C 434.8,59.4 429,54.5 429,46 Z m 20.3,0 v 0 c 0,-5.1 -3.4,-8.3 -7.3,-8.3 -4,0 -7.3,3.1 -7.3,8.2 V 46 c 0,5 3.3,8.2 7.3,8.2 3.9,0 7.3,-3.3 7.3,-8.2 z"
   id="path14" />
					<path
   class="st10"
   d="m 459.2,55.5 2.6,-4 c 2.7,2.1 5.7,3.2 8.3,3.2 2.5,0 3.9,-1.1 3.9,-2.8 v -0.1 c 0,-2 -2.7,-2.7 -5.6,-3.6 -3.7,-1.1 -7.9,-2.6 -7.9,-7.5 v -0.1 c 0,-4.9 4,-7.8 9,-7.8 3.1,0 6.6,1.1 9.3,2.9 l -2.3,4.2 c -2.4,-1.5 -5,-2.4 -7.1,-2.4 -2.2,0 -3.5,1.1 -3.5,2.6 v 0.1 c 0,1.9 2.7,2.6 5.7,3.6 3.7,1.2 7.8,2.9 7.8,7.5 v -0.1 c 0,5.4 -4.1,8.1 -9.4,8.1 -3.7,0 -7.6,-1.3 -10.8,-3.8 z"
   id="path15" />
					<path
   class="st10"
   d="M 195.2,51.7 V 26 h 5.8 v 7.1 h 6.8 v 5.1 H 201 v 12.6 c 0,2.3 1.1,3.2 3.1,3.2 1.3,0 2.4,-0.3 3.6,-0.9 v 4.8 c -1.4,0.8 -3.1,1.3 -5.2,1.3 -4.3,0.1 -7.3,-1.8 -7.3,-7.5 z"
   id="path16" />
					<path
   class="st10"
   d="m 405.5,33.1 v 3.8 c -2,-2.4 -4.6,-4.4 -8.8,-4.4 -5.9,0 -11.5,4.5 -11.5,12.1 v 0.1 c 0,7.5 5.5,12 11.5,12 4.2,0 6.8,-1.9 8.9,-4.7 v 3.8 c 0,5.2 -2.8,7.9 -8,7.9 -2.5,0 -4.7,-0.5 -6.7,-1.5 l -1.8,4.5 c 2.6,1.1 5.6,1.7 8.7,1.7 4.5,0 8.1,-1.1 10.4,-3.5 2.1,-2.1 3.2,-5.4 3.2,-9.7 V 33.1 Z m 0.1,11.6 c 0,4.1 -3.4,7.1 -7.4,7.1 -4,0 -7.2,-2.9 -7.2,-7.1 v -0.1 c 0,-4.2 3.1,-7.1 7.2,-7.1 4.1,0 7.4,2.9 7.4,7.2 z"
   id="path17" />
				</g>
			</g>
		</g>
	</g>
</g>
<path
   style="font-size:13.3333px;-inkscape-font-specification:sans-serif"
   d="m 457.08325,59.93513 q -0.85287,0 -1.58854,0.305988 -0.73568,0.305989 -1.34766,0.917967 -0.61197,0.611978 -0.92447,1.360674 -0.3125,0.742185 -0.3125,1.588537 0,0.839842 0.3125,1.582027 0.3125,0.735676 0.92447,1.347653 0.61198,0.611978 1.34766,0.924477 0.73567,0.305989 1.58854,0.305989 0.85937,0 1.59504,-0.305989 0.74219,-0.312499 1.35417,-0.924477 0.60546,-0.605467 0.90494,-1.341142 0.30599,-0.735675 0.30599,-1.588538 0,-0.865883 -0.30599,-1.601558 -0.30599,-0.742186 -0.90494,-1.347653 -0.61198,-0.611978 -1.35417,-0.917967 -0.73567,-0.305988 -1.59504,-0.305988 z m 0,-0.670572 q 0.98958,0 1.84244,0.358072 0.85937,0.358072 1.569,1.067706 0.70964,0.709634 1.0612,1.562496 0.35156,0.852863 0.35156,1.855464 0,0.989581 -0.35156,1.842443 -0.35156,0.846352 -1.0612,1.555986 -0.70963,0.709634 -1.569,1.067706 -0.85286,0.358072 -1.84244,0.358072 -0.98959,0 -1.84896,-0.358072 -0.85286,-0.358072 -1.56249,-1.067706 -0.70964,-0.709634 -1.0612,-1.555986 -0.35156,-0.852862 -0.35156,-1.842443 0,-1.002601 0.35156,-1.855464 0.35156,-0.852862 1.0612,-1.562496 0.70963,-0.709634 1.56249,-1.067706 0.85937,-0.358072 1.84896,-0.358072 z m -0.17579,2.695306 h -0.80077 v 1.796871 h 0.80077 q 0.71615,0 0.9961,-0.201823 0.28645,-0.201822 0.28645,-0.690102 0,-0.494791 -0.28645,-0.696613 -0.28646,-0.208333 -0.9961,-0.208333 z m 0.0456,-0.670571 q 1.14583,0 1.71223,0.390624 0.56641,0.384114 0.56641,1.171872 0,0.559894 -0.34505,0.924477 -0.33854,0.364582 -0.96354,0.475259 0.15625,0.05208 0.37109,0.305989 0.22135,0.247395 0.52083,0.722654 l 0.89193,1.451819 h -1.11979 l -0.83984,-1.360673 q -0.38412,-0.624999 -0.625,-0.787759 -0.23438,-0.16927 -0.58594,-0.16927 h -0.42968 v 2.317702 h -1.00912 v -5.442694 z"
   id="text3"
   aria-label="®" /></svg>
