<svg width="1028" height="200" viewBox="0 0 1028 200" fill="none" xmlns="http://www.w3.org/2000/svg">
<path d="M0 123.75V122.182C1.65677 101.585 17.3201 87.2086 35.3201 79.8026C40.1166 77.829 46.6964 75.2526 55.0594 72.0732C78.9109 63.0072 102.891 54.2251 126.673 44.9874C131.228 43.2218 136.323 41.4396 138.611 37.5419C139.865 35.4066 139.802 32.9709 138.208 31.0171C135.521 27.7267 129.502 26.5782 125.627 26.7927C124.184 26.8719 122.036 27.3175 119.185 28.1293C108.507 31.1701 98.736 34.4264 89.8713 37.8983C74.5226 43.9093 59.2178 50.0314 43.9571 56.2647C42.4455 56.8807 40.8801 57.0952 39.2607 56.9082C39.2129 56.9028 39.1683 56.882 39.1342 56.849C39.1001 56.8161 39.0784 56.773 39.0726 56.7267C38.89 55.2504 39.231 53.8059 40.0957 52.3934C52.5545 32.0963 69.4951 15.367 91.2772 5.74981C97.9175 2.81911 105.449 1.04024 112.538 0.419774C140.446 -2.02577 167.769 6.13595 187.238 26.961C189.129 28.9841 191.139 32.0633 192.185 34.7168C200.548 55.9214 175.851 70.5683 160.129 76.8026C155.407 78.6728 148.158 81.2691 138.383 84.5914C128.535 87.9401 118.691 91.301 108.851 94.6739C90.2211 101.06 71.3003 108.067 55.1023 119.377C51.3201 122.017 47.5677 125.453 44.9142 129.172C36.8746 140.43 37.3465 155.149 45.2277 166.509C45.549 166.971 45.714 167.712 45.7228 168.733C45.7239 168.788 45.7145 168.841 45.6953 168.891C45.676 168.941 45.6472 168.986 45.6106 169.024C44.6051 170.053 43.4268 170.316 42.0759 169.813C26.4818 164.007 12.2673 154.159 4.35644 139.169C1.83058 134.388 0.378438 129.248 0 123.75Z" fill="#922EFF"/>
<path d="M254 76.2502L254 77.8178C252.343 98.4152 236.68 112.791 218.68 120.197C213.883 122.171 207.304 124.747 198.941 127.927C175.089 136.993 151.109 145.775 127.327 155.013C122.772 156.778 117.677 158.56 115.389 162.458C114.135 164.593 114.198 167.029 115.792 168.983C118.479 172.273 124.498 173.422 128.373 173.207C129.816 173.128 131.964 172.683 134.815 171.871C145.493 168.83 155.264 165.574 164.129 162.102C179.477 156.091 194.782 149.969 210.043 143.735C211.554 143.119 213.12 142.905 214.739 143.092C214.787 143.097 214.832 143.118 214.866 143.151C214.9 143.184 214.922 143.227 214.927 143.273C215.11 144.75 214.769 146.194 213.904 147.607C201.446 167.904 184.505 184.633 162.723 194.25C156.083 197.181 148.551 198.96 141.462 199.58C113.554 202.026 86.231 193.864 66.7624 173.039C64.8713 171.016 62.8614 167.937 61.8152 165.283C53.4521 144.079 78.1485 129.432 93.8713 123.197C98.593 121.327 105.842 118.731 115.617 115.409C125.465 112.06 135.309 108.699 145.149 105.326C163.779 98.94 182.7 91.9334 198.898 80.6231C202.68 77.9829 206.432 74.5472 209.086 70.8278C217.125 59.5703 216.653 44.8509 208.772 33.4911C208.451 33.0291 208.286 32.2876 208.277 31.2667C208.276 31.2123 208.285 31.1586 208.305 31.1088C208.324 31.0589 208.353 31.0139 208.389 30.9763C209.395 29.9466 210.573 29.6836 211.924 30.1875C227.518 35.9928 241.733 45.841 249.644 60.8311C252.169 65.6121 253.622 70.7518 254 76.2502Z" fill="#922EFF"/>
<path d="M393.891 200C375.858 200 360.102 195.902 346.623 187.705C333.144 179.508 322.67 168.033 315.202 153.279C307.734 138.525 304 121.311 304 101.639C304 82.1494 307.825 64.9363 315.475 50C323.126 35.0638 333.964 23.4062 347.989 15.0273C362.197 6.46631 378.954 2.1858 398.262 2.1858C420.12 2.1858 438.335 7.46813 452.907 18.0328C467.479 28.5975 476.951 43.1694 481.322 61.7486H448.536C445.621 51.5483 439.883 43.5337 431.322 37.7049C422.761 31.8761 411.741 28.9618 398.262 28.9618C378.226 28.9618 362.47 35.4281 350.995 48.3607C339.519 61.2933 333.781 79.1439 333.781 101.913C333.781 124.681 339.428 142.441 350.721 155.191C362.015 167.942 377.042 174.317 395.803 174.317C414.747 174.317 428.954 168.944 438.426 158.197C448.08 147.45 453.727 133.151 455.366 115.301H403.454V92.8962H484.601V196.721H458.098L455.639 168.579C449.264 178.597 441.25 186.339 431.596 191.803C421.942 197.268 409.373 200 393.891 200Z" fill="black"/>
<path d="M579.314 200C566.017 200 554.177 197.086 543.795 191.257C533.594 185.246 525.58 176.958 519.751 166.393C513.922 155.829 511.008 143.534 511.008 129.508C511.008 115.301 513.831 102.823 519.478 92.0765C525.307 81.3297 533.321 72.9508 543.521 66.9399C553.904 60.929 565.926 57.9235 579.587 57.9235C592.884 57.9235 604.45 60.929 614.286 66.9399C624.123 72.7687 631.773 80.6011 637.237 90.4372C642.702 100.273 645.434 111.111 645.434 122.951C645.434 124.772 645.343 126.776 645.161 128.962C645.161 130.965 645.07 133.242 644.888 135.792H539.423C540.334 148.907 544.614 158.925 552.265 165.847C560.097 172.587 569.113 175.956 579.314 175.956C587.511 175.956 594.341 174.135 599.806 170.492C605.452 166.667 609.642 161.566 612.374 155.191H641.336C637.693 167.942 630.407 178.597 619.478 187.158C608.731 195.72 595.343 200 579.314 200ZM579.314 81.694C569.66 81.694 561.099 84.6084 553.631 90.4372C546.163 96.0838 541.609 104.645 539.97 116.12H616.472C615.926 105.556 612.192 97.1767 605.27 90.9836C598.348 84.7905 589.696 81.694 579.314 81.694Z" fill="black"/>
<path d="M672.752 196.721V61.2022H698.435L700.621 84.9727C704.81 76.5938 710.912 70.0364 718.927 65.3005C727.124 60.3825 736.504 57.9235 747.069 57.9235C763.463 57.9235 776.304 63.0237 785.594 73.224C795.065 83.4244 799.801 98.6339 799.801 118.852V196.721H771.113V121.858C771.113 95.6284 760.366 82.5137 738.872 82.5137C728.126 82.5137 719.2 86.3388 712.096 93.9891C705.175 101.639 701.714 112.568 701.714 126.776V196.721H672.752Z" fill="black"/>
<path d="M847.573 35.5191C842.108 35.5191 837.555 33.8798 833.912 30.6011C830.451 27.1403 828.72 22.8597 828.72 17.7596C828.72 12.6594 830.451 8.46995 833.912 5.19126C837.555 1.73042 842.108 0 847.573 0C853.037 0 857.5 1.73042 860.961 5.19126C864.604 8.46995 866.425 12.6594 866.425 17.7596C866.425 22.8597 864.604 27.1403 860.961 30.6011C857.5 33.8798 853.037 35.5191 847.573 35.5191ZM833.092 196.721V61.2022H862.054V196.721H833.092Z" fill="black"/>
<path d="M960.942 200C947.645 200 935.805 197.086 925.422 191.257C915.222 185.246 907.208 176.958 901.379 166.393C895.55 155.829 892.636 143.534 892.636 129.508C892.636 115.301 895.459 102.823 901.106 92.0765C906.934 81.3297 914.949 72.9508 925.149 66.9399C935.532 60.929 947.554 57.9235 961.215 57.9235C974.512 57.9235 986.078 60.929 995.914 66.9399C1005.75 72.7687 1013.4 80.6011 1018.87 90.4372C1024.33 100.273 1027.06 111.111 1027.06 122.951C1027.06 124.772 1026.97 126.776 1026.79 128.962C1026.79 130.965 1026.7 133.242 1026.52 135.792H921.051C921.962 148.907 926.242 158.925 933.892 165.847C941.725 172.587 950.741 175.956 960.942 175.956C969.138 175.956 975.969 174.135 981.433 170.492C987.08 166.667 991.27 161.566 994.002 155.191H1022.96C1019.32 167.942 1012.03 178.597 1001.11 187.158C990.359 195.72 976.971 200 960.942 200ZM960.942 81.694C951.288 81.694 942.727 84.6084 935.259 90.4372C927.79 96.0838 923.237 104.645 921.597 116.12H998.1C997.554 105.556 993.82 97.1767 986.898 90.9836C979.976 84.7905 971.324 81.694 960.942 81.694Z" fill="black"/>
</svg>
