<svg width="150" height="48" viewBox="0 0 150 48" fill="none" xmlns="http://www.w3.org/2000/svg">
    <mask id="mask0_108_5163" style="mask-type:luminance" maskUnits="userSpaceOnUse" x="0" y="0" width="150" height="48">
        <path d="M149.788 0H0V48H149.788V0Z" fill="white"/>
    </mask>
    <g mask="url(#mask0_108_5163)">
        <path d="M60.9238 27.3105C60.9238 27.8442 61.3785 28.3054 61.9208 28.3054C62.4923 28.3054 62.9323 27.8442 62.9323 27.3105V24.7153H64.8259L67.1449 27.8873C67.3503 28.1614 67.5996 28.2909 67.9074 28.2909C68.4203 28.2909 68.8308 27.8873 68.8308 27.3828C68.8308 27.1665 68.7723 26.9933 68.6549 26.8493L66.8812 24.3552C68.1125 23.9666 68.9335 22.9146 68.9335 21.6307C68.9335 20.7218 68.6257 19.9574 67.9954 19.3669C67.3795 18.7763 66.6168 18.4741 65.7214 18.4741H61.7596C61.2025 18.4741 60.9238 18.7477 60.9238 19.3093V27.3105ZM62.9323 20.1014H65.2516C66.1766 20.1014 66.9104 20.7651 66.9104 21.6307C66.9104 22.4963 66.1619 23.16 65.2077 23.16H62.9323V20.1014Z" fill="white"/>
        <path d="M74.2891 24.0809H78.2802C78.735 24.0809 79.1164 23.7064 79.1164 23.2599C79.1164 22.799 78.735 22.439 78.2802 22.439H74.2891V20.2167H78.3681C78.8524 20.2167 79.2632 19.8136 79.2632 19.3382C79.2632 18.8628 78.8524 18.4741 78.3681 18.4741H73.0137C72.4564 18.4741 72.178 18.7477 72.178 19.3095V27.297C72.178 27.8589 72.4564 28.1325 73.0137 28.1325H78.5149C78.999 28.1325 79.41 27.7435 79.41 27.2681C79.41 26.793 78.999 26.3896 78.5149 26.3896H74.2891V24.0809Z" fill="white"/>
        <path d="M86.7914 28.3202C88.0098 28.3202 89.0519 27.9026 89.9168 27.0813C90.782 26.2454 91.2216 25.2488 91.2216 24.0787V19.3413C91.2216 18.7635 90.7526 18.3013 90.1661 18.3013C89.5798 18.3013 89.1105 18.7635 89.1105 19.3413V24.0787C89.1105 24.7288 88.8757 25.2921 88.4208 25.7543C87.9657 26.2165 87.4226 26.4477 86.7914 26.4477C86.1309 26.4477 85.5584 26.2165 85.0741 25.7543C84.6042 25.2921 84.3694 24.7288 84.3694 24.0787V19.3413C84.3694 18.7635 83.9004 18.3013 83.3139 18.3013C82.7274 18.3013 82.2583 18.7635 82.2583 19.3413V24.0787C82.2583 25.2488 82.6982 26.2454 83.5778 27.0813C84.4721 27.9026 85.5437 28.3202 86.7914 28.3202Z" fill="white"/>
        <path d="M98.2365 28.3202C100.54 28.3202 102.036 27.2687 102.051 25.4812C102.021 24.3132 101.611 23.6497 100.702 23.1593C100.057 22.7988 99.5431 22.6115 98.5887 22.3229L98.4566 22.2796C97.9281 22.1067 97.7666 22.0633 97.3703 21.8901C97.1794 21.8037 97.0326 21.7172 96.9299 21.645C96.7536 21.4721 96.5774 21.2124 96.5774 20.9095C96.5774 20.2028 97.2674 19.8999 98.1482 19.8999C98.6916 19.8999 99.1173 20.001 99.411 20.2317C99.7046 20.4625 99.7779 20.5489 99.9541 20.7796C100.159 21.0679 100.438 21.2119 100.804 21.2119C101.332 21.2119 101.699 20.8085 101.699 20.2898C101.699 19.9873 101.508 19.6415 101.112 19.2523C100.482 18.6184 99.5284 18.3013 98.2218 18.3013C95.9324 18.3013 94.4663 19.2523 94.4663 20.9815C94.4663 22.0486 94.9795 22.7263 95.815 23.2311C96.4456 23.5774 96.9737 23.7937 97.8693 24.0967L98.0455 24.1542C98.574 24.3274 98.7355 24.385 99.132 24.5726C99.3374 24.659 99.4842 24.7457 99.5722 24.8322C99.7484 25.0054 99.9247 25.2792 99.9247 25.5822C99.9247 26.289 99.2053 26.664 98.2512 26.664C97.3995 26.664 96.7242 26.3466 96.2255 25.6975C95.9618 25.3659 95.6684 25.2072 95.3312 25.2072C94.8035 25.2072 94.4077 25.6111 94.4077 26.1303C94.4077 26.4619 94.6128 26.8222 95.0381 27.2112C95.815 27.9457 96.871 28.3202 98.2365 28.3202Z" fill="white"/>
        <path d="M105.207 27.252C105.207 27.8293 105.676 28.3057 106.262 28.3057C106.849 28.3057 107.318 27.8293 107.318 27.252V19.3408C107.318 18.7632 106.849 18.3013 106.262 18.3013C105.676 18.3013 105.207 18.7632 105.207 19.3408V27.252Z" fill="white"/>
        <path d="M117.075 20.2167C117.56 20.2167 117.97 19.8136 117.97 19.3382C117.97 18.8628 117.56 18.4741 117.075 18.4741H111.721C111.164 18.4741 110.885 18.7477 110.885 19.3095V27.1665C110.885 27.743 111.355 28.2045 111.941 28.2045C112.527 28.2045 112.996 27.743 112.996 27.1665V24.2972H116.885C117.34 24.2972 117.721 23.9372 117.721 23.4907C117.721 23.0297 117.34 22.6697 116.885 22.6697H112.996V20.2167H117.075Z" fill="white"/>
        <path d="M123.695 27.1942C123.695 27.7573 124.179 28.2337 124.765 28.2337C125.352 28.2337 125.821 27.7573 125.821 27.1942V24.8123L129.386 19.8605C129.489 19.7162 129.548 19.5284 129.548 19.3119C129.548 18.749 129.078 18.3013 128.506 18.3013C128.139 18.3013 127.845 18.4747 127.611 18.821L124.751 22.8922L121.993 18.821C121.773 18.5031 121.465 18.3302 121.098 18.3302C120.526 18.3302 120.071 18.7627 120.071 19.3248C120.071 19.5266 120.115 19.6995 120.217 19.8583L123.695 24.8172V27.1957V27.1942Z" fill="white"/>
        <path fill-rule="evenodd" clip-rule="evenodd" d="M18.5696 25.726C13.2073 22.6838 6.36344 24.4807 3.29638 29.7382C0.228304 34.9977 2.094 41.7379 7.45806 44.7811C12.8203 47.8231 19.6642 46.0261 22.7312 40.7687C25.7993 35.5094 23.9336 28.7692 18.5696 25.726ZM23.5429 42.2021C23.4336 42.3817 23.4011 42.6311 23.462 42.8641C23.5231 43.0975 23.6745 43.3008 23.8591 43.4062C24.2878 43.6504 25.9649 44.6009 25.9649 44.6009C26.7935 45.0709 27.8547 44.7915 28.3331 43.9771C28.8116 43.1628 28.5274 42.1201 27.6985 41.6499C27.6985 41.6499 25.9558 40.66 25.5343 40.4221C25.2537 40.2634 24.6225 40.2808 24.3495 40.8245C24.2343 41.0537 24.1114 41.2807 23.9803 41.5054C23.8413 41.7438 23.6585 42.0119 23.5429 42.2021Z" fill="white"/>
        <path fill-rule="evenodd" clip-rule="evenodd" d="M27.1743 22.3328C32.5366 25.3748 39.3805 23.5779 42.4475 18.3204C45.5156 13.0612 43.6499 6.32097 38.2856 3.27775C32.9236 0.235536 26.0797 2.03246 23.0127 7.28994C19.9443 12.5494 21.8103 19.2896 27.1743 22.3328ZM22.3062 5.94897C22.4155 5.76933 22.448 5.51992 22.3871 5.28696C22.326 5.0535 22.1749 4.85019 21.99 4.74479C21.5613 4.50037 19.8842 3.55008 19.8842 3.55008C19.0556 3.08017 17.9944 3.35948 17.516 4.17397C17.0375 4.98822 17.322 6.03095 18.1506 6.50111C18.1506 6.50111 19.8934 7.49101 20.3148 7.72896C20.5955 7.88767 21.2268 7.87023 21.4997 7.32657C21.6148 7.09734 21.7378 6.87036 21.8688 6.64562C22.0078 6.40717 22.1906 6.13908 22.3062 5.94897Z" fill="white"/>
        <path fill-rule="evenodd" clip-rule="evenodd" d="M37.6475 35.9991C37.7289 36.0784 38.2963 36.6522 38.3389 37.2693C38.3397 37.2828 38.3402 37.2965 38.3402 37.3102V41.3433C38.3402 41.6777 38.0646 41.9485 37.7243 41.9485H30.2534C29.9507 41.9485 29.6466 41.8581 29.3386 41.4759C29.3279 41.4639 29.3175 41.4517 29.3079 41.439C29.0787 41.1395 28.7858 40.8799 28.4351 40.6811L25.3207 38.914C25.0828 38.779 24.9647 38.5054 25.0311 38.2435C26.3362 33.0974 24.0802 27.4981 19.1635 24.7085C15.8342 22.8199 11.9892 22.6184 8.6567 23.8328C8.33062 23.9516 8.02686 23.8699 7.79358 23.5719C7.62395 23.3549 7.50757 22.8877 7.50757 22.6081V16.1178C7.50757 16.0979 7.50858 16.0777 7.51086 16.058C7.52177 15.7072 7.7094 15.557 7.85241 15.4762C7.96626 15.4122 8.0971 15.3801 8.24264 15.392C8.4001 15.405 8.63667 15.5189 8.78348 15.6631C9.09485 15.9691 10.9884 17.8295 10.9884 17.8295C11.1809 18.0187 11.4935 18.0187 11.686 17.8295C11.8787 17.6404 11.8787 17.3332 11.686 17.1439C11.6809 17.1389 11.6761 17.1339 11.671 17.1287L8.18711 13.4568C8.11814 13.392 7.93203 13.2064 7.77761 12.9595C7.6308 12.7248 7.51923 12.4403 7.51112 12.1497C7.50858 12.1286 7.50757 12.1074 7.50757 12.086V6.91892C7.50757 6.5848 7.78319 6.31372 8.12347 6.31372C8.12347 6.31372 13.4028 6.31372 14.7873 6.31372C15.2713 6.31372 15.8454 6.3942 16.2224 6.527C16.4866 6.62043 16.6781 6.75274 16.7863 6.87856C16.9983 7.12523 17.2564 7.3405 17.5572 7.51092L17.5577 7.51142C17.5577 7.51142 19.5689 8.65556 20.1001 8.9538C20.5527 9.20794 20.7274 9.7212 20.6331 10.1438C19.5075 15.1959 21.7708 20.6136 26.5809 23.3427C29.8591 25.2024 33.6372 25.4264 36.9352 24.2728C36.9687 24.2611 37.0032 24.2523 37.0384 24.2464C37.5316 24.1639 38.3402 24.4649 38.3402 25.8606V33.4101C38.3402 33.4348 38.3387 33.4597 38.3356 33.4841C38.2887 33.8586 38.0656 33.9922 37.8653 34.053C37.7395 34.0911 37.5884 34.0968 37.4281 34.041C37.311 34.0004 37.168 33.9065 37.0686 33.8088C36.7572 33.5028 34.8639 31.6424 34.8639 31.6424C34.6712 31.453 34.3585 31.453 34.1661 31.6424C33.9734 31.8315 33.9734 32.1387 34.1661 32.328C34.1712 32.333 34.176 32.338 34.1811 32.3432L37.6761 36.0268L37.6475 35.9991ZM7.52151 15.9898C7.52025 15.9947 7.51923 15.9997 7.51847 16.005L7.52481 15.9756L7.52151 15.9898Z" fill="#6FCD8A"/>
        <path fill-rule="evenodd" clip-rule="evenodd" d="M16.9942 28.0208C12.9832 25.7452 7.86482 27.0936 5.57035 31.0266C3.27817 34.9563 4.66768 39.9933 8.67545 42.2671C12.6865 44.5427 17.8051 43.1942 20.0993 39.2613C22.3918 35.3318 21.002 30.2946 16.9942 28.0208ZM15.8509 29.9669C18.7669 31.6211 19.7834 35.2847 18.1155 38.1438C16.4496 40.9996 12.7314 41.9733 9.81875 40.3212C6.90281 38.6668 5.88654 35.0031 7.55446 32.1441C9.22035 29.2885 12.9383 28.3145 15.8509 29.9669Z" fill="black"/>
        <path fill-rule="evenodd" clip-rule="evenodd" d="M5.42241 24.838C5.4285 24.832 5.43535 24.8265 5.44295 24.821C5.76193 24.5866 5.83673 23.9004 5.83673 23.4975V16.0584C5.81721 15.9455 5.69525 16.0068 5.60954 16.0908C5.2827 16.4122 3.40484 18.2575 3.40484 18.2575C2.97201 18.6828 2.26889 18.6828 1.83606 18.2575C1.40298 17.8319 1.40298 17.1412 1.83606 16.7159L5.33113 13.0321C5.33113 13.0321 5.79692 12.6275 5.83673 12.1745V5.79534C5.83673 5.17494 6.34867 4.67189 6.98029 4.67189H14.8287C15.1487 4.67189 15.4981 4.63377 15.5291 4.45114C15.5968 4.05249 15.7372 3.65857 15.9548 3.28807C16.9307 1.62718 19.0954 1.05711 20.7856 2.01612C20.7856 2.01612 22.8265 3.16847 23.3478 3.46971C23.5073 3.56189 23.8083 3.46821 23.8965 3.38823C27.9535 -0.287594 34.1358 -1.12227 39.187 1.74354C45.4116 5.2751 47.5717 13.0979 44.0112 19.2013C43.3497 20.3352 42.537 21.3308 41.6123 22.1775C41.6095 22.1832 41.6049 22.1889 41.5988 22.1949C41.0367 22.7333 40.0113 23.6293 40.0113 25.2087V33.3602C40.0123 33.3652 40.0128 33.3714 40.0128 33.3784C40.0128 33.5368 40.1495 33.4723 40.2428 33.3809C40.5699 33.0594 42.4475 31.2142 42.4475 31.2142C42.8806 30.7889 43.5834 30.7889 44.0163 31.2142C44.4493 31.6397 44.4493 32.3304 44.0163 32.7557L40.5212 36.4395C40.5212 36.4395 40.0128 36.881 40.0128 37.3579C40.0128 37.3654 40.0123 37.3726 40.0113 37.3801V42.4666C40.0113 43.0873 39.4993 43.5903 38.8677 43.5903H31.2209C30.9889 43.5903 30.5497 43.6708 30.4305 43.9085C30.3547 44.2496 30.2249 44.5852 30.0378 44.9037C29.0618 46.5645 26.8972 47.1346 25.2069 46.1756L22.11 44.4185C18.0611 48.3004 11.7188 49.2355 6.5576 46.3074C0.332707 42.7758 -1.82712 34.953 1.73312 28.8497C2.68726 27.2144 3.95582 25.867 5.42241 24.838ZM18.3281 26.1304C23.4612 29.0425 25.2478 35.4917 22.3118 40.5245C19.3778 45.554 12.8304 47.2716 7.7009 44.3615C2.56809 41.4493 0.781254 35.0001 3.71722 29.9671C6.65117 24.9379 13.1986 23.2202 18.3281 26.1304ZM25.3238 40.8115C25.0436 40.652 24.7957 40.7029 24.677 40.9393C24.5581 41.176 24.431 41.4102 24.2959 41.6422C24.1504 41.8916 24.0203 42.0981 23.8603 42.3341C23.7396 42.5125 23.7256 42.7412 24.0076 42.9004C24.4668 43.16 26.3502 44.2297 26.3502 44.2297C26.9476 44.5685 27.7126 44.367 28.0575 43.7802C28.4023 43.1932 28.1972 42.4415 27.6 42.1026C27.6 42.1026 25.7734 41.0671 25.3238 40.8115ZM29.8002 41.0751C29.805 41.0798 29.8096 41.0848 29.8141 41.0905C29.9652 41.2814 30.105 41.3432 30.2535 41.3432H37.7244V37.3101C37.693 36.8531 37.2259 36.4395 37.2259 36.4395L33.7306 32.7557C33.2978 32.3304 33.2978 31.6397 33.7306 31.2142C34.1634 30.7889 34.8666 30.7889 35.2994 31.2142C35.2994 31.2142 37.193 33.0749 37.5043 33.3809C37.5789 33.4541 37.7082 33.5391 37.7244 33.41V25.8605C37.7244 25.0692 37.4214 24.7961 37.142 24.843C33.6801 26.0536 29.714 25.8187 26.2732 23.8665C21.225 21.0027 18.8502 15.3164 20.0315 10.0143C20.0739 9.82448 19.9978 9.59326 19.7947 9.47914C19.2627 9.1804 17.2492 8.03502 17.2492 8.03502C16.8851 7.82847 16.5725 7.5676 16.3159 7.26886C16.1275 7.0496 15.3782 6.9188 14.7874 6.9188H8.12359V12.0858C8.12536 12.0948 8.12638 12.1043 8.12638 12.1137C8.12638 12.5894 8.62665 13.0321 8.62665 13.0321L12.1217 16.7159C12.5545 17.1412 12.5545 17.8319 12.1217 18.2575C11.6889 18.6828 10.9858 18.6828 10.5529 18.2575C10.5529 18.2575 8.65936 16.3968 8.34799 16.0908C8.26837 16.0126 8.12638 15.9211 8.12638 16.0908C8.12638 16.1015 8.12536 16.1105 8.12359 16.1177V22.608C8.12359 22.8527 8.2349 23.3408 8.44282 23.265C11.9409 21.9904 15.9768 22.2019 19.4714 24.1844C24.6319 27.112 26.9986 32.9889 25.6289 38.3897L28.7433 40.1567C29.168 40.3976 29.5228 40.7123 29.8002 41.0751ZM27.4165 21.9206C22.2834 19.0084 20.4968 12.5592 23.4325 7.52649C26.3667 2.49699 32.9141 0.779299 38.0437 3.68946C43.1765 6.60162 44.9633 13.0511 42.0273 18.0838C39.0934 23.1131 32.546 24.8307 27.4165 21.9206ZM21.8906 5.70465C21.9893 5.5427 21.9132 5.25093 21.7471 5.15625C21.3186 4.91208 19.6423 3.96204 19.6423 3.96204C19.0449 3.62319 18.2802 3.82476 17.9353 4.41152C17.5905 4.99854 17.7954 5.75025 18.3928 6.0891C18.3928 6.0891 20.135 7.07851 20.5561 7.31645C20.6789 7.38572 20.9461 7.35383 21.0655 7.11588C21.185 6.87793 21.3128 6.64223 21.4487 6.40902C21.5894 6.16784 21.7737 5.897 21.8906 5.70465Z" fill="black"/>
        <path fill-rule="evenodd" clip-rule="evenodd" d="M28.6988 19.7153C32.5886 21.9221 37.5531 20.6175 39.7778 16.8034C42.0028 12.9896 40.6511 8.10158 36.7612 5.89479C32.8713 3.688 27.9071 4.99284 25.6822 8.8067C23.4574 12.6206 24.8089 17.5085 28.6988 19.7153Z" fill="#763863"/>
    </g>
</svg>
