<svg width="118" height="20" viewBox="0 0 118 20" fill="none" xmlns="http://www.w3.org/2000/svg">
<path d="M41.3147 14.2949H31.7006C31.7006 14.2949 30.2183 16.1412 30.0376 16.4281C29.8437 16.8425 30.0934 16.9408 30.2448 16.9408C30.3962 16.9408 37.367 17.0099 41.3147 16.9408C45.2623 16.8717 44.9037 14.1434 44.9037 14.1434V12.3157C44.9037 12.3157 45.1454 9.83451 42.7705 9.34305C42.7173 9.33242 36.4611 9.3218 34.3465 9.31383C34.126 9.31383 33.7169 9.07208 33.7302 7.90585C33.7408 6.94418 34.0596 6.64665 34.1871 6.5643C34.2164 6.5457 43.1291 6.53773 44.4149 6.53773C44.5052 6.53773 45.9025 4.72597 46.1576 4.38858C46.1788 4.36202 46.0619 4.12824 46.0035 4.01401C45.9875 3.98213 35.3427 3.99276 33.0369 3.99541C32.8934 3.99541 32.216 4.09105 31.2888 5.28915C30.9541 5.72217 30.8904 6.20566 30.8797 6.44741C30.8771 6.53242 30.8213 8.50358 30.8638 8.91534C30.9594 9.82388 31.3792 10.4747 31.8839 10.8653C32.4338 11.2903 33.0687 11.4444 33.4167 11.5002C33.5575 11.5241 39.5162 11.4869 41.0331 11.5002C41.846 11.5055 42.0266 12.0421 42.0638 12.3423C42.0744 12.43 42.1037 13.1207 42.0851 13.4899C42.0452 14.332 41.312 14.3055 41.312 14.3055" fill="black"/>
<path d="M46.7101 16.6831C46.718 16.9275 46.7101 6.57228 46.7101 6.57228L48.6706 3.9848C48.6706 3.9848 55.211 3.99277 57.756 3.98746C59.2224 3.9848 60.1203 4.50283 60.8163 5.60264C61.3716 6.4793 61.3397 8.34951 61.2015 10.1825C61.0315 12.4326 58.8611 12.8577 58.2368 12.9321C58.1438 12.9427 52.8892 12.9746 51.6566 12.9825L51.6725 10.4562C51.6725 10.4562 56.0213 10.5279 57.0626 10.4748C57.5063 10.4535 58.1412 10.3818 58.3829 9.26602C58.6991 7.8182 58.2528 6.53775 57.044 6.51649C54.9347 6.48196 49.5871 6.53509 49.5871 6.53509V16.5742C49.5871 16.5742 49.5765 16.9727 49.2763 16.978C48.9761 16.986 47.6531 17.0178 47.1723 17.0152C46.6915 17.0125 46.7101 16.6858 46.7101 16.6858" fill="black"/>
<path d="M63 4.31156C63 4.31156 63.0239 16.5636 63.0345 16.7389C63.0452 16.9142 63.3241 16.9434 63.3241 16.9434H65.5715C65.5715 16.9434 65.8133 16.9009 65.8956 16.6884C65.9381 16.5503 65.9647 4.31156 65.9647 4.31156C65.9647 4.31156 65.9541 4.01137 65.8106 4.00871C65.6672 4.00871 63.2231 4.0034 63.1886 4.00871C63.0372 4.05653 63 4.31156 63 4.31156Z" fill="black"/>
<path d="M74.5085 4.3541C74.5085 4.3541 74.5324 16.6061 74.5431 16.7814C74.5537 16.9568 74.8326 16.986 74.8326 16.986H77.0801C77.0801 16.986 77.3218 16.9435 77.4042 16.731C77.4467 16.5928 77.4706 4.3541 77.4706 4.3541C77.4706 4.3541 77.4599 4.05391 77.3165 4.05125C77.173 4.05125 74.729 4.04594 74.6945 4.05125C74.5431 4.09907 74.5059 4.3541 74.5059 4.3541H74.5085Z" fill="black"/>
<path d="M79.5635 4.33817C79.5635 4.33817 79.5874 16.5902 79.598 16.7655C79.6086 16.9408 79.8876 16.9701 79.8876 16.9701H82.135C82.135 16.9701 82.3768 16.9276 82.4591 16.715C82.5016 16.5769 82.5282 4.33817 82.5282 4.33817C82.5282 4.33817 82.5176 4.03798 82.3741 4.03532C82.2306 4.03532 79.7866 4.03001 79.7521 4.03532C79.6007 4.08314 79.5635 4.33817 79.5635 4.33817Z" fill="black"/>
<path d="M100.301 5.28385C100.115 5.1032 99.1242 4.05387 99.0365 4.01668C99.0179 4.00871 98.9648 4.00074 98.8931 3.99542H97.5382C97.5143 4.00871 97.4612 4.0459 97.4532 4.15482C97.347 5.5867 97.509 13.9575 97.509 13.9575C97.4904 14.3453 97.3523 14.348 97.2354 14.3135C96.8103 14.1833 94.5044 10.7962 92.4642 8.19277C91.1067 6.4607 89.9139 4.81364 89.287 4.18669C89.1993 4.09903 89.0877 4.05918 88.9868 4.04324H88.405C88.0172 4.0459 87.4141 4.05121 87.3211 4.04855C87.2521 4.04855 86.6118 4.04855 85.9929 4.0459C85.3925 4.0459 85.4244 4.04324 85.4084 4.0459C84.4946 4.38859 84.6168 5.13243 84.6168 5.13243C84.6221 7.36924 84.6407 16.6247 84.6487 16.7787C84.6593 16.9541 84.9276 16.9833 84.9276 16.9833H87.0927C87.0927 16.9833 87.3265 16.9408 87.4035 16.7283C87.4301 16.6326 87.4035 10.5624 87.4035 6.96013C87.4035 6.69713 87.5071 6.49789 87.7595 6.65729C87.8179 6.69448 87.8418 6.76355 87.9189 6.84059C88.0437 6.96544 92.7724 13.3598 94.7223 15.7533C95.4289 16.6193 95.7583 16.9063 96.1515 16.9142C96.1781 16.9142 98.824 16.9833 98.8506 16.9806C98.8984 16.978 100.187 15.7825 100.293 15.6285C100.336 15.5674 100.298 5.28916 100.298 5.28916L100.301 5.28385Z" fill="black"/>
<path d="M76.3204 9.10931H65.7021V11.556H76.3204V9.10931Z" fill="black"/>
<path d="M101.321 3.99542C101.321 3.99542 101.175 4.12559 101.321 4.37265C101.512 4.57189 106.092 9.34571 106.092 9.34571H108.411L109.057 8.7108L104.485 3.99808" fill="#0AAAA1"/>
<path d="M117.844 3.99542C117.844 3.99542 117.99 4.12559 117.844 4.37265C117.653 4.57189 113.078 9.34571 113.078 9.34571H110.762L110.116 8.7108L114.683 3.99808" fill="#12DDE0"/>
<path d="M117.844 17.1852C117.844 17.1852 117.99 17.0497 117.844 16.7973C117.653 16.5928 113.073 11.6675 113.073 11.6675H110.754L110.108 12.3237L114.678 17.1852" fill="#14C4EC"/>
<path d="M101.321 17.1852C101.321 17.1852 101.175 17.0497 101.321 16.7973C101.512 16.5928 106.087 11.6675 106.087 11.6675H108.403L109.049 12.3237L104.482 17.1852" fill="#137DBE"/>
<path d="M20.277 6.92471C20.277 6.92471 20.0638 5.83131 20.5781 5.18268C21.0182 4.62516 21.7626 4.56648 22.3032 4.56957C22.3526 4.56957 23.1417 4.68848 23.2066 4.22672C23.2112 4.19275 23.2159 2.38739 23.2128 1.9488C23.2128 1.89475 22.2043 1.56116 21.7904 0.830684C21.7842 0.819874 21.2576 1.0191 21.0368 1.09477C20.9874 1.11176 21.4368 2.22833 22.4252 2.5094C22.4406 2.51403 22.4205 3.26459 22.419 3.62288C22.419 3.66921 22.4035 3.69701 22.385 3.71245C22.3726 3.72481 21.3132 3.53948 20.4051 4.19892C19.6314 4.76107 19.4106 5.88536 19.4121 5.88536" fill="url(#paint0_linear_532_202)"/>
<path d="M14.6536 6.27762C14.6536 6.27762 14.0188 5.00353 14.5609 3.29702C15.0736 1.68008 16.2195 0.798249 17.5956 0.274713C18.7137 -0.149985 21.1275 0.0214388 21.4117 0.111011C21.5646 0.158886 21.563 0.310233 21.6171 0.47239C21.6866 0.680878 21.8564 0.926431 21.8456 0.92952C21.4024 1.01909 20.1623 1.14418 19.0473 2.22214C18.1407 3.09934 18.448 4.01514 18.7569 4.61744C19.2743 5.62745 20.1391 6.65599 20.8402 7.49612C21.7869 8.63276 22.0865 9.19336 22.1715 9.34317C22.5298 9.98562 22.9869 10.9817 23.0255 11.9392C23.0966 13.6674 21.9012 15.3862 21.7499 15.5376C21.4564 15.831 21.248 13.9762 21.3113 13.8944C21.9553 13.0743 22.1113 12.1307 21.8642 11.269C21.6418 10.4968 21.1321 9.83427 20.5376 9.09761C20.0125 8.44744 19.421 7.7185 18.8959 7.08995C17.7346 5.70158 17.35 4.62825 17.279 4.00896C17.1245 2.64684 17.9122 1.75421 18.4836 1.28935C18.8017 1.0299 19.0534 0.903265 19.0364 0.901721C18.5778 0.878556 17.1601 0.944963 16.1053 2.4816C15.0752 3.97962 15.4983 5.72011 15.7145 6.16797C16.2195 7.21659 17.2234 8.29146 17.9492 9.34934C18.7507 10.5169 19.2542 11.5748 19.3407 11.7415C19.5847 12.2079 19.9167 12.8612 20.2472 13.567C20.6364 14.3994 21.058 15.4758 21.4117 16.265C21.8379 17.2163 22.173 17.8248 22.3213 18.0719C22.9977 19.2008 24.0309 19.9791 23.9768 19.9791C23.1815 19.9714 21.1429 19.973 21.1399 19.9591C20.987 19.1452 20.7939 18.4857 20.5793 17.797C20.2318 16.6773 19.8503 15.7059 19.4766 14.7762C17.8334 10.6883 16.0126 8.35015 14.5207 7.60422C13.5586 7.12238 12.0791 7.06215 10.6846 7.08223C8.43753 7.11466 5.68086 7.24748 3.45236 6.87529C1.63465 6.57259 0.856294 5.56567 0.440863 4.75798C0.175233 4.24371 -0.0131779 3.75414 0.000721333 3.76341C0.643173 4.17112 2.63385 4.89233 4.41449 5.14561C6.4345 5.43286 8.96725 5.49463 10.7247 5.6815C13.5988 5.98728 14.5841 6.28689 14.5841 6.28689" fill="url(#paint1_linear_532_202)"/>
<path d="M21.5542 13.5453C21.5542 13.5453 21.1928 14.1307 20.5426 14.5322C20.2507 14.7129 21.2963 16.143 21.3086 16.1291C21.3905 16.0287 21.7055 15.6364 21.9202 15.3198C21.9665 15.2503 22.0098 15.1855 22.0422 15.1268" fill="url(#paint2_linear_532_202)"/>
<path d="M17.427 19.9853H19.3234C18.942 18.529 18.7875 17.8572 18.6547 17.3753C18.4663 16.685 17.742 13.8032 16.959 12.3732C16.627 11.7678 15.5753 10.4968 14.1143 9.96087C13.6556 9.79254 12.8603 9.55316 10.8063 9.47749C9.21871 9.4188 7.30989 9.46668 5.83194 9.35085C4.17793 9.22113 3.06445 8.79797 3.06445 8.79797C3.60807 9.75393 4.1872 10.6512 5.30531 11.1593C6.21957 11.5747 7.51374 11.4666 9.0164 11.3276C10.1422 11.2242 11.4704 11.1176 12.3707 11.1176C13.9274 11.1176 14.4958 11.6921 14.8911 12.0442C15.1985 12.3176 15.3127 12.8812 14.5467 13.2519C14.1004 13.4681 13.7375 13.6519 12.1607 13.9978C10.2581 14.4163 8.86968 15.0912 7.28209 16.4688C5.89062 17.6765 5.34547 19.5668 5.24045 19.9745C5.22964 20.0177 7.44579 19.9946 8.08052 19.9868C8.10677 19.9868 7.84114 19.7706 7.83188 19.3598C7.82879 19.173 7.90292 18.9382 8.03728 18.6772C8.73996 17.3166 9.79475 16.4333 10.516 15.9499C10.6843 15.8371 11.3036 15.4541 12.3121 15.119C13.0981 14.8565 14.2193 14.6634 14.905 14.387C15.5598 14.1229 15.9814 13.7476 16.1498 13.5778C16.1776 13.55 16.505 14.3716 16.7227 15.136C16.8725 15.6611 16.9822 16.2232 17.0301 16.4827C17.0301 16.4827 15.2757 16.6757 12.8835 17.8803C11.5569 18.549 10.9345 19.6857 10.8048 19.9467C10.8001 19.9559 14.2965 19.9853 14.3398 19.9853C14.363 19.9853 14.1545 19.3861 14.8958 18.8548C15.5552 18.3822 16.8571 18.061 17.2725 17.9668L17.4254 19.9868L17.427 19.9853Z" fill="url(#paint3_linear_532_202)"/>
<defs>
<linearGradient id="paint0_linear_532_202" x1="6.51984" y1="3.52867" x2="21.0877" y2="3.8777" gradientUnits="userSpaceOnUse">
<stop stop-color="#137DBE"/>
<stop offset="0.44" stop-color="#0AAAA1"/>
<stop offset="0.9" stop-color="#12DDE0"/>
</linearGradient>
<linearGradient id="paint1_linear_532_202" x1="6.37273" y1="9.64432" x2="20.9406" y2="9.99334" gradientUnits="userSpaceOnUse">
<stop stop-color="#137DBE"/>
<stop offset="0.44" stop-color="#0AAAA1"/>
<stop offset="0.9" stop-color="#12DDE0"/>
</linearGradient>
<linearGradient id="paint2_linear_532_202" x1="6.25733" y1="14.4735" x2="20.8252" y2="14.8225" gradientUnits="userSpaceOnUse">
<stop stop-color="#137DBE"/>
<stop offset="0.44" stop-color="#0AAAA1"/>
<stop offset="0.9" stop-color="#12DDE0"/>
</linearGradient>
<linearGradient id="paint3_linear_532_202" x1="6.25818" y1="14.4426" x2="20.8261" y2="14.7916" gradientUnits="userSpaceOnUse">
<stop stop-color="#137DBE"/>
<stop offset="0.44" stop-color="#0AAAA1"/>
<stop offset="0.9" stop-color="#12DDE0"/>
</linearGradient>
</defs>
</svg>
