<svg width="97" height="24" viewBox="0 0 97 24" fill="none" xmlns="http://www.w3.org/2000/svg">
	<path fill-rule="evenodd" clip-rule="evenodd" d="M72.8814 18.7777C72.3771 18.2405 72.2414 17.5905 72.2879 16.8587H81.6677C82.6956 16.8587 83.6576 16.0296 83.7895 15.0487C83.9214 14.0678 83.8516 13.083 83.6344 12.1138C83.1107 9.74721 81.7646 8.06568 79.4915 7.17821C78.2307 6.68776 76.8808 6.57877 75.5658 6.66051C74.2508 6.74225 72.9939 7.06143 71.8341 7.71147C70.2397 8.59895 69.1187 9.92627 68.3739 11.5767C67.5398 13.4217 67.2412 15.364 67.3963 17.3764C67.4778 18.4818 67.761 19.5328 68.3157 20.4981C69.204 22.0356 70.5423 23.001 72.2103 23.5109C74.2624 24.1415 76.3455 24.122 78.4325 23.6821C79.4374 23.4733 80.3794 23.0307 81.1828 22.3899C81.9353 21.7943 82.2146 20.8562 81.9159 20.0661C81.4815 18.9256 80.0772 18.4935 78.9755 19.1552C78.8434 19.2374 78.703 19.3053 78.5566 19.3576C77.3735 19.7664 76.1554 19.9182 74.9141 19.7313C74.1499 19.6184 73.3857 19.3148 72.8814 18.7777ZM79.0415 13.2387C79.0557 13.3667 79.0635 13.4953 79.0648 13.6241H72.5711C72.6151 13.1756 72.803 12.7536 73.1064 12.4213C73.6107 11.8491 74.274 11.5611 74.9955 11.3937C75.9459 11.1757 76.8692 11.2458 77.7575 11.6545C78.4402 11.9659 78.9251 12.4602 79.0415 13.2387Z" fill="#FF6F26"/>
	<path fill-rule="evenodd" clip-rule="evenodd" d="M29.8269 20.9653C31.4988 19.1475 32.4026 17.0027 32.4647 14.5155V14.2819C32.4647 14.2041 32.4569 14.1263 32.4492 14.0484L32.4492 14.0484C32.3173 11.9075 31.4988 10.0781 29.9122 8.63401C28.0153 6.90966 25.7577 6.34136 23.2712 6.75785C20.3463 7.2483 18.0809 8.80138 16.4749 11.2925C15.3189 13.087 14.8845 15.0643 15.1832 17.1818C15.4431 19.0035 16.2693 20.5565 17.627 21.7904C19.6597 23.6394 22.057 24.3166 24.753 23.834C26.7663 23.4759 28.4459 22.4599 29.8269 20.9653ZM20.4681 15.9287C20.4665 15.8817 20.4649 15.8371 20.4627 15.7961C20.4859 14.5544 20.7963 13.4606 21.6186 12.5576C22.6932 11.3743 24.6017 10.9344 26.0098 11.5572C27.0029 11.9971 27.5576 12.795 27.7942 13.8343C28.2093 15.6248 27.3908 17.8124 25.909 18.875C23.8802 20.3347 21.1958 19.3382 20.6062 16.9054C20.5571 16.7106 20.5196 16.5131 20.4937 16.3138C20.4771 16.1802 20.4723 16.0466 20.4681 15.9287Z" fill="#FF6F26"/>
	<path fill-rule="evenodd" clip-rule="evenodd" d="M48.5126 8.85199C47.0036 7.36119 45.1688 6.65276 42.7753 6.6333C42.7052 6.64101 42.6179 6.64872 42.518 6.65756C42.2143 6.6844 41.7933 6.72161 41.3788 6.80068C39.2143 7.21717 37.3911 8.27202 35.9054 9.89516C34.3537 11.5923 33.4848 13.5774 33.4654 15.909C33.446 18.2406 34.2917 20.2257 36.0024 21.7943C38.035 23.6549 40.444 24.3205 43.1439 23.8301C45.1532 23.4642 46.8329 22.46 48.1945 20.9536C50.1573 18.7894 51.1232 16.2593 50.7392 13.3049C50.5103 11.5728 49.7578 10.0781 48.5126 8.85199ZM45.8714 14.632C45.8751 14.6778 45.8787 14.7234 45.8825 14.7685C45.8011 16.4773 45.2308 17.9408 43.7917 18.9334C41.8676 20.2607 39.3695 19.42 38.679 17.1818C38.1359 15.4263 38.423 13.772 39.7419 12.4291C40.7078 11.4483 41.953 11.1213 43.2874 11.3393C44.6218 11.5572 45.611 12.6471 45.8127 14.0601C45.8408 14.2509 45.8563 14.4442 45.8714 14.632Z" fill="#FF6F26"/>
	<path d="M7.66148 11.4015H7.4171C6.04001 11.4015 4.66291 11.4054 3.28582 11.4015C2.22682 11.3976 1.36565 10.6542 1.19497 9.60712C1.04368 8.67294 1.60616 7.6142 2.50224 7.13153C2.85082 6.9449 3.23985 6.84731 3.63494 6.84739C7.1572 6.85128 10.6833 6.86296 14.2056 6.83571C14.9659 6.83182 15.6059 7.58695 15.4198 8.40825C15.3688 8.62264 15.2766 8.82496 15.1482 9.0038C12.738 12.3824 10.3252 15.7598 7.90975 19.1358C7.87872 19.1825 7.84768 19.2331 7.79338 19.311H8.02224C9.3877 19.311 10.7493 19.3149 12.1147 19.3071C12.9371 19.3032 13.5772 19.6263 13.9767 20.3464C14.3763 21.0665 14.3569 21.8372 13.9418 22.5534C13.4763 23.3591 12.7548 23.7795 11.816 23.7795C8.30542 23.7834 4.79481 23.7678 1.28419 23.7912C0.469572 23.7951 -0.116177 23.0516 0.0195925 22.2264C0.0619553 21.9777 0.163045 21.7428 0.314407 21.5413C2.72723 18.2198 5.13876 14.8969 7.54899 11.5728C7.58002 11.53 7.60718 11.4872 7.66148 11.4015Z" fill="#FF6F26"/>
	<path d="M69.1885 0.0044946C69.6389 0.00336372 70.088 0.0543012 70.5268 0.1563C71.6362 0.420985 72.0047 1.87676 71.5082 2.69417C67.5877 9.19973 63.6762 15.7092 59.7738 22.2225L59.3898 22.8765C59.1338 23.328 58.7265 23.4876 58.2299 23.4564C57.7334 23.4253 57.458 23.1762 57.2718 22.7324C56.8684 21.7671 56.4378 20.8096 56.0111 19.852C55.9568 19.7353 55.9568 19.6457 56.0227 19.5329C59.2372 13.894 62.4504 8.25127 65.6623 2.60464C65.8408 2.29325 66.0115 1.98185 66.1938 1.67435C66.8261 0.58836 67.7571 0.000602162 69.0333 0.0044946H69.1885C69.1885 -0.0110752 69.1846 0.0200644 69.1885 0.0044946Z" fill="#FF6F26"/>
	<path d="M94.3136 11.1797C93.7544 11.1871 93.1992 11.2749 92.6649 11.4405C91.4158 11.8219 90.6633 12.6705 90.4344 13.9472C90.3103 14.6401 90.2637 15.3485 90.1978 16.0491C90.0659 17.4893 89.9534 18.9295 89.8215 20.3697C89.7789 20.8213 89.7595 21.2806 89.6431 21.7126C89.3211 22.9232 88.2078 23.7912 87.0363 23.7795C85.57 23.7639 84.6196 22.5145 84.7825 21.2261C84.9377 20.0311 85.0036 18.8283 85.1123 17.6256C85.2364 16.2528 85.3592 14.8788 85.4808 13.5035C85.5777 12.4175 85.6941 11.3354 85.7639 10.2494C85.7989 9.74728 85.9889 9.35414 86.3575 9.03107C86.8462 8.59512 87.4165 8.2954 87.9983 8.01125C89.3405 7.36511 90.7603 7.007 92.2343 6.8552C93.0761 6.76956 93.9179 6.68782 94.7635 6.6489C95.6751 6.60219 96.3695 7.02257 96.7729 7.83998C97.1764 8.6574 97.0251 9.48649 96.4548 10.2027C95.9389 10.8527 95.2717 11.2147 94.3136 11.1797Z" fill="#FF6F26"/>
	<path d="M55.4136 18.4936L54.7463 16.9911C53.3861 13.8928 52.0232 10.7944 50.6577 7.696C50.4327 7.18609 50.3086 6.65283 50.4289 6.08843C50.5608 5.46174 50.9254 5.03747 51.5422 4.87009C52.4383 4.62098 53.3576 4.58984 54.2692 4.73775C55.111 4.87399 55.689 5.40725 56.0032 6.19352C56.8644 8.33436 57.71 10.4869 58.5673 12.6316C58.6255 12.7605 58.6138 12.9104 58.5363 13.0286C57.5122 14.814 56.4932 16.6019 55.4795 18.3924L55.4136 18.4936Z" fill="#FF6F26"/>
</svg>
