<svg xmlns="http://www.w3.org/2000/svg" viewBox="0 0 128 128">
  <defs>
    <linearGradient id="brainGrad" x1="0" y1="0" x2="1" y2="1">
      <stop offset="0" stop-color="#7C3AED"/>
      <stop offset="1" stop-color="#F59E0B"/>
    </linearGradient>
  </defs>
  <g transform="translate(8 6) scale(1.15)">
    <path d="M50 8c-10 0-19 8-20 18-7 1-12 8-12 16 0 8 6 15 14 16 2 8 9 14 18 14 8 0 15-5 17-12 7-2 12-8 12-15 0-7-4-12-10-15-1-12-10-22-19-22z" fill="url(#brainGrad)" stroke="#5B21B6" stroke-width="4"/>
    <path d="M24 42c7-2 13-1 20 3" stroke="#5B21B6" stroke-width="4" fill="none" stroke-linecap="round"/>
    <path d="M28 28c7-5 15-6 23-2" stroke="#5B21B6" stroke-width="4" fill="none" stroke-linecap="round"/>
    <path d="M36 58c7 4 14 4 20 0" stroke="#5B21B6" stroke-width="4" fill="none" stroke-linecap="round"/>
  </g>
</svg>
